<svg width="309" height="68" viewBox="0 0 309 68" fill="none" xmlns="http://www.w3.org/2000/svg">
<g filter="url(#filter0_d_9884_130)">
<rect x="5" y="5" width="289" height="48" rx="4" fill="url(#paint0_linear_9884_130)" shape-rendering="crispEdges"/>
<path d="M37.4964 27.326H35.1058C35.0376 26.9339 34.9119 26.5866 34.7287 26.2841C34.5455 25.9773 34.3175 25.7173 34.0447 25.5043C33.772 25.2912 33.4609 25.1314 33.1115 25.0249C32.7663 24.9141 32.3935 24.8587 31.9929 24.8587C31.2813 24.8587 30.6506 25.0376 30.1009 25.3956C29.5511 25.7493 29.1207 26.2692 28.8097 26.9553C28.4986 27.6371 28.343 28.4702 28.343 29.4545C28.343 30.456 28.4986 31.2997 28.8097 31.9858C29.125 32.6676 29.5554 33.1832 30.1009 33.5327C30.6506 33.8778 31.2791 34.0504 31.9865 34.0504C32.3786 34.0504 32.745 33.9993 33.0859 33.897C33.4311 33.7905 33.7401 33.6349 34.0128 33.4304C34.2898 33.2259 34.522 32.9744 34.7095 32.6761C34.9013 32.3778 35.0334 32.0369 35.1058 31.6534L37.4964 31.6662C37.407 32.2884 37.2131 32.8722 36.9148 33.4176C36.6207 33.9631 36.2351 34.4446 35.7578 34.8622C35.2805 35.2756 34.7223 35.5994 34.0831 35.8338C33.4439 36.0639 32.7344 36.179 31.9545 36.179C30.804 36.179 29.777 35.9126 28.8736 35.38C27.9702 34.8473 27.2585 34.0781 26.7386 33.0724C26.2188 32.0668 25.9588 30.8608 25.9588 29.4545C25.9588 28.044 26.2209 26.8381 26.745 25.8366C27.2692 24.831 27.983 24.0618 28.8864 23.5291C29.7898 22.9964 30.8125 22.7301 31.9545 22.7301C32.6832 22.7301 33.3608 22.8324 33.9872 23.0369C34.6136 23.2415 35.1719 23.5419 35.6619 23.9382C36.152 24.3303 36.5547 24.8118 36.87 25.3828C37.1896 25.9496 37.3984 26.5973 37.4964 27.326ZM43.8485 36.1918C42.8897 36.1918 42.0588 35.9808 41.3556 35.5589C40.6525 35.1371 40.1071 34.5469 39.7193 33.7884C39.3358 33.0298 39.144 32.1435 39.144 31.1293C39.144 30.1151 39.3358 29.2266 39.7193 28.4638C40.1071 27.701 40.6525 27.1087 41.3556 26.6868C42.0588 26.2649 42.8897 26.054 43.8485 26.054C44.8074 26.054 45.6383 26.2649 46.3414 26.6868C47.0446 27.1087 47.5879 27.701 47.9714 28.4638C48.3592 29.2266 48.5531 30.1151 48.5531 31.1293C48.5531 32.1435 48.3592 33.0298 47.9714 33.7884C47.5879 34.5469 47.0446 35.1371 46.3414 35.5589C45.6383 35.9808 44.8074 36.1918 43.8485 36.1918ZM43.8613 34.3381C44.3812 34.3381 44.8159 34.1953 45.1653 33.9098C45.5147 33.62 45.7747 33.2322 45.9451 32.7464C46.1199 32.2607 46.2072 31.7195 46.2072 31.1229C46.2072 30.522 46.1199 29.9787 45.9451 29.4929C45.7747 29.0028 45.5147 28.6129 45.1653 28.3232C44.8159 28.0334 44.3812 27.8885 43.8613 27.8885C43.3287 27.8885 42.8855 28.0334 42.5318 28.3232C42.1824 28.6129 41.9203 29.0028 41.7456 29.4929C41.5751 29.9787 41.4899 30.522 41.4899 31.1229C41.4899 31.7195 41.5751 32.2607 41.7456 32.7464C41.9203 33.2322 42.1824 33.62 42.5318 33.9098C42.8855 34.1953 43.3287 34.3381 43.8613 34.3381ZM50.517 36V26.1818H52.7287V27.8501H52.8438C53.0483 27.2876 53.3871 26.8487 53.8601 26.5334C54.3331 26.2138 54.8977 26.054 55.554 26.054C56.2188 26.054 56.7791 26.2159 57.2351 26.5398C57.6953 26.8594 58.0192 27.2962 58.2067 27.8501H58.3089C58.5263 27.3047 58.8928 26.87 59.4084 26.5462C59.9283 26.218 60.544 26.054 61.2557 26.054C62.1591 26.054 62.8963 26.3395 63.4673 26.9105C64.0384 27.4815 64.3239 28.3146 64.3239 29.4098V36H62.0036V29.7678C62.0036 29.1584 61.8416 28.7131 61.5178 28.4318C61.1939 28.1463 60.7976 28.0036 60.3288 28.0036C59.7706 28.0036 59.3338 28.1783 59.0185 28.5277C58.7074 28.8729 58.5518 29.3224 58.5518 29.8764V36H56.2827V29.6719C56.2827 29.1648 56.1293 28.7599 55.8224 28.4574C55.5199 28.1548 55.1236 28.0036 54.6335 28.0036C54.3011 28.0036 53.9986 28.0888 53.7259 28.2592C53.4531 28.4254 53.2358 28.6619 53.0739 28.9688C52.9119 29.2713 52.831 29.625 52.831 30.0298V36H50.517ZM66.6713 39.6818V26.1818H68.9469V27.8054H69.0811C69.2005 27.5668 69.3688 27.3132 69.5861 27.0447C69.8034 26.772 70.0975 26.5398 70.4682 26.348C70.839 26.152 71.312 26.054 71.8873 26.054C72.6458 26.054 73.3297 26.2479 73.9391 26.6357C74.5527 27.0192 75.0385 27.5881 75.3965 28.3423C75.7587 29.0923 75.9398 30.0128 75.9398 31.1037C75.9398 32.1818 75.763 33.098 75.4093 33.8523C75.0556 34.6065 74.574 35.1818 73.9647 35.5781C73.3553 35.9744 72.665 36.1726 71.8936 36.1726C71.3311 36.1726 70.8645 36.0788 70.4938 35.8913C70.123 35.7038 69.8248 35.478 69.5989 35.2138C69.3773 34.9453 69.2047 34.6918 69.0811 34.4531H68.9853V39.6818H66.6713ZM68.9405 31.0909C68.9405 31.7259 69.03 32.282 69.209 32.7592C69.3922 33.2365 69.6543 33.6094 69.9952 33.8778C70.3404 34.142 70.758 34.2741 71.248 34.2741C71.7594 34.2741 72.1877 34.1378 72.5328 33.8651C72.878 33.5881 73.138 33.2109 73.3127 32.7337C73.4917 32.2521 73.5811 31.7045 73.5811 31.0909C73.5811 30.4815 73.4938 29.9403 73.3191 29.4673C73.1444 28.9943 72.8844 28.6236 72.5392 28.3551C72.1941 28.0866 71.7637 27.9524 71.248 27.9524C70.7537 27.9524 70.334 28.0824 69.9888 28.3423C69.6436 28.6023 69.3816 28.9666 69.2026 29.4354C69.0279 29.9041 68.9405 30.456 68.9405 31.0909ZM77.9213 36V26.1818H80.165V27.8182H80.2672C80.4462 27.2514 80.753 26.8146 81.1877 26.5078C81.6266 26.1967 82.1273 26.0412 82.6898 26.0412C82.8176 26.0412 82.9604 26.0476 83.1181 26.0604C83.28 26.0689 83.4142 26.0838 83.5208 26.1051V28.2337C83.4228 28.1996 83.2672 28.1697 83.0542 28.1442C82.8453 28.1143 82.6429 28.0994 82.4469 28.0994C82.025 28.0994 81.6458 28.1911 81.3091 28.3743C80.9767 28.5533 80.7147 28.8026 80.5229 29.1222C80.3311 29.4418 80.2353 29.8104 80.2353 30.228V36H77.9213ZM87.7076 36.1982C87.0854 36.1982 86.525 36.0874 86.0265 35.8658C85.5321 35.6399 85.1401 35.3075 84.8503 34.8686C84.5648 34.4297 84.4221 33.8885 84.4221 33.245C84.4221 32.6911 84.5243 32.233 84.7289 31.8707C84.9334 31.5085 85.2125 31.2188 85.5662 31.0014C85.9199 30.7841 86.3184 30.62 86.7615 30.5092C87.209 30.3942 87.6713 30.3111 88.1486 30.2599C88.7239 30.2003 89.1905 30.147 89.5485 30.1001C89.9064 30.049 90.1664 29.9723 90.3283 29.87C90.4945 29.7635 90.5776 29.5994 90.5776 29.3778V29.3395C90.5776 28.858 90.4348 28.4851 90.1493 28.2209C89.8638 27.9567 89.4526 27.8246 88.9157 27.8246C88.3489 27.8246 87.8993 27.9482 87.5669 28.1953C87.2388 28.4425 87.0172 28.7344 86.9022 29.071L84.7417 28.7642C84.9121 28.1676 85.1934 27.669 85.5854 27.2685C85.9775 26.8636 86.4569 26.5611 87.0236 26.3608C87.5904 26.1562 88.2168 26.054 88.9029 26.054C89.3759 26.054 89.8468 26.1094 90.3155 26.2202C90.7843 26.331 91.2125 26.5142 91.6003 26.7699C91.9881 27.0213 92.2992 27.3643 92.5336 27.799C92.7722 28.2337 92.8915 28.777 92.8915 29.429V36H90.6671V34.6513H90.5904C90.4498 34.924 90.2516 35.1797 89.9959 35.4183C89.7445 35.6527 89.427 35.8423 89.0435 35.9872C88.6642 36.1278 88.2189 36.1982 87.7076 36.1982ZM88.3084 34.4979C88.7729 34.4979 89.1756 34.4062 89.5165 34.223C89.8574 34.0355 90.1195 33.7884 90.3027 33.4815C90.4902 33.1747 90.584 32.8402 90.584 32.478V31.321C90.5115 31.3807 90.388 31.4361 90.2132 31.4872C90.0428 31.5384 89.851 31.5831 89.638 31.6214C89.4249 31.6598 89.214 31.6939 89.0051 31.7237C88.7963 31.7536 88.6152 31.7791 88.4618 31.8004C88.1167 31.8473 87.8077 31.924 87.535 32.0305C87.2623 32.1371 87.0471 32.2862 86.8894 32.478C86.7317 32.6655 86.6529 32.9084 86.6529 33.2067C86.6529 33.6328 86.8084 33.9545 87.1195 34.1719C87.4306 34.3892 87.8269 34.4979 88.3084 34.4979ZM104.03 36.1918C103.045 36.1918 102.195 35.9872 101.479 35.5781C100.768 35.1648 100.22 34.581 99.8365 33.8267C99.4529 33.0682 99.2612 32.1754 99.2612 31.1484C99.2612 30.1385 99.4529 29.2521 99.8365 28.4893C100.224 27.7223 100.765 27.1257 101.46 26.6996C102.155 26.2692 102.971 26.054 103.908 26.054C104.513 26.054 105.084 26.152 105.621 26.348C106.162 26.5398 106.64 26.8381 107.053 27.2429C107.471 27.6477 107.799 28.1634 108.037 28.7898C108.276 29.4119 108.395 30.1534 108.395 31.0142V31.7237H100.348V30.1641H106.177C106.173 29.7209 106.077 29.3267 105.89 28.9815C105.702 28.6321 105.44 28.3572 105.104 28.157C104.771 27.9567 104.383 27.8565 103.94 27.8565C103.467 27.8565 103.052 27.9716 102.694 28.2017C102.336 28.4276 102.057 28.7259 101.856 29.0966C101.66 29.4631 101.56 29.8658 101.556 30.3047V31.6662C101.556 32.2372 101.66 32.7273 101.869 33.1364C102.078 33.5412 102.37 33.8523 102.745 34.0696C103.12 34.2827 103.559 34.3892 104.062 34.3892C104.398 34.3892 104.703 34.3423 104.976 34.2486C105.248 34.1506 105.485 34.0078 105.685 33.8203C105.885 33.6328 106.037 33.4006 106.139 33.1236L108.3 33.3665C108.163 33.9375 107.903 34.4361 107.52 34.8622C107.14 35.2841 106.655 35.6122 106.062 35.8466C105.47 36.0767 104.792 36.1918 104.03 36.1918ZM118.113 28.777L116.004 29.0071C115.944 28.794 115.839 28.5938 115.69 28.4062C115.545 28.2188 115.349 28.0675 115.102 27.9524C114.855 27.8374 114.553 27.7798 114.195 27.7798C113.713 27.7798 113.308 27.8842 112.98 28.093C112.656 28.3018 112.496 28.5724 112.501 28.9048C112.496 29.1903 112.601 29.4226 112.814 29.6016C113.031 29.7805 113.389 29.9276 113.888 30.0426L115.562 30.4006C116.491 30.6009 117.182 30.9183 117.634 31.353C118.089 31.7876 118.32 32.3565 118.324 33.0597C118.32 33.6776 118.138 34.223 117.781 34.696C117.427 35.1648 116.935 35.5312 116.304 35.7955C115.673 36.0597 114.949 36.1918 114.131 36.1918C112.929 36.1918 111.962 35.9403 111.229 35.4375C110.496 34.9304 110.059 34.2251 109.918 33.3217L112.175 33.1044C112.277 33.5476 112.494 33.8821 112.827 34.108C113.159 34.3338 113.592 34.4467 114.124 34.4467C114.674 34.4467 115.115 34.3338 115.447 34.108C115.784 33.8821 115.952 33.603 115.952 33.2706C115.952 32.9893 115.844 32.7571 115.626 32.5739C115.413 32.3906 115.081 32.25 114.629 32.152L112.955 31.8004C112.013 31.6044 111.316 31.2741 110.864 30.8097C110.413 30.3409 110.189 29.7486 110.193 29.0327C110.189 28.4276 110.353 27.9034 110.685 27.4602C111.022 27.0128 111.489 26.6676 112.085 26.4247C112.686 26.1776 113.379 26.054 114.163 26.054C115.313 26.054 116.219 26.299 116.879 26.7891C117.544 27.2791 117.955 27.9418 118.113 28.777ZM125.135 26.1818V27.9716H119.49V26.1818H125.135ZM120.884 23.8295H123.198V33.0469C123.198 33.358 123.245 33.5966 123.338 33.7628C123.436 33.9247 123.564 34.0355 123.722 34.0952C123.88 34.1548 124.054 34.1847 124.246 34.1847C124.391 34.1847 124.523 34.174 124.642 34.1527C124.766 34.1314 124.86 34.1122 124.924 34.0952L125.314 35.9041C125.19 35.9467 125.013 35.9936 124.783 36.0447C124.557 36.0959 124.28 36.1257 123.952 36.1342C123.373 36.1513 122.85 36.0639 122.386 35.8722C121.922 35.6761 121.553 35.3736 121.28 34.9645C121.012 34.5554 120.88 34.044 120.884 33.4304V23.8295ZM129.895 36.1982C129.273 36.1982 128.713 36.0874 128.214 35.8658C127.72 35.6399 127.328 35.3075 127.038 34.8686C126.752 34.4297 126.61 33.8885 126.61 33.245C126.61 32.6911 126.712 32.233 126.916 31.8707C127.121 31.5085 127.4 31.2188 127.754 31.0014C128.107 30.7841 128.506 30.62 128.949 30.5092C129.396 30.3942 129.859 30.3111 130.336 30.2599C130.911 30.2003 131.378 30.147 131.736 30.1001C132.094 30.049 132.354 29.9723 132.516 29.87C132.682 29.7635 132.765 29.5994 132.765 29.3778V29.3395C132.765 28.858 132.622 28.4851 132.337 28.2209C132.051 27.9567 131.64 27.8246 131.103 27.8246C130.536 27.8246 130.087 27.9482 129.754 28.1953C129.426 28.4425 129.205 28.7344 129.09 29.071L126.929 28.7642C127.1 28.1676 127.381 27.669 127.773 27.2685C128.165 26.8636 128.644 26.5611 129.211 26.3608C129.778 26.1562 130.404 26.054 131.09 26.054C131.563 26.054 132.034 26.1094 132.503 26.2202C132.972 26.331 133.4 26.5142 133.788 26.7699C134.176 27.0213 134.487 27.3643 134.721 27.799C134.96 28.2337 135.079 28.777 135.079 29.429V36H132.855V34.6513H132.778C132.637 34.924 132.439 35.1797 132.183 35.4183C131.932 35.6527 131.615 35.8423 131.231 35.9872C130.852 36.1278 130.406 36.1982 129.895 36.1982ZM130.496 34.4979C130.96 34.4979 131.363 34.4062 131.704 34.223C132.045 34.0355 132.307 33.7884 132.49 33.4815C132.678 33.1747 132.771 32.8402 132.771 32.478V31.321C132.699 31.3807 132.575 31.4361 132.401 31.4872C132.23 31.5384 132.039 31.5831 131.825 31.6214C131.612 31.6598 131.401 31.6939 131.193 31.7237C130.984 31.7536 130.803 31.7791 130.649 31.8004C130.304 31.8473 129.995 31.924 129.722 32.0305C129.45 32.1371 129.235 32.2862 129.077 32.478C128.919 32.6655 128.84 32.9084 128.84 33.2067C128.84 33.6328 128.996 33.9545 129.307 34.1719C129.618 34.3892 130.014 34.4979 130.496 34.4979ZM146.153 36.1918C145.194 36.1918 144.363 35.9808 143.66 35.5589C142.957 35.1371 142.412 34.5469 142.024 33.7884C141.64 33.0298 141.449 32.1435 141.449 31.1293C141.449 30.1151 141.64 29.2266 142.024 28.4638C142.412 27.701 142.957 27.1087 143.66 26.6868C144.363 26.2649 145.194 26.054 146.153 26.054C147.112 26.054 147.943 26.2649 148.646 26.6868C149.349 27.1087 149.893 27.701 150.276 28.4638C150.664 29.2266 150.858 30.1151 150.858 31.1293C150.858 32.1435 150.664 33.0298 150.276 33.7884C149.893 34.5469 149.349 35.1371 148.646 35.5589C147.943 35.9808 147.112 36.1918 146.153 36.1918ZM146.166 34.3381C146.686 34.3381 147.121 34.1953 147.47 33.9098C147.819 33.62 148.079 33.2322 148.25 32.7464C148.425 32.2607 148.512 31.7195 148.512 31.1229C148.512 30.522 148.425 29.9787 148.25 29.4929C148.079 29.0028 147.819 28.6129 147.47 28.3232C147.121 28.0334 146.686 27.8885 146.166 27.8885C145.633 27.8885 145.19 28.0334 144.836 28.3232C144.487 28.6129 144.225 29.0028 144.05 29.4929C143.88 29.9787 143.795 30.522 143.795 31.1229C143.795 31.7195 143.88 32.2607 144.05 32.7464C144.225 33.2322 144.487 33.62 144.836 33.9098C145.19 34.1953 145.633 34.3381 146.166 34.3381ZM152.924 36V22.9091H155.238V27.8054H155.334C155.453 27.5668 155.621 27.3132 155.839 27.0447C156.056 26.772 156.35 26.5398 156.721 26.348C157.092 26.152 157.565 26.054 158.14 26.054C158.898 26.054 159.582 26.2479 160.192 26.6357C160.805 27.0192 161.291 27.5881 161.649 28.3423C162.011 29.0923 162.192 30.0128 162.192 31.1037C162.192 32.1818 162.016 33.098 161.662 33.8523C161.308 34.6065 160.827 35.1818 160.217 35.5781C159.608 35.9744 158.918 36.1726 158.146 36.1726C157.584 36.1726 157.117 36.0788 156.746 35.8913C156.376 35.7038 156.077 35.478 155.852 35.2138C155.63 34.9453 155.457 34.6918 155.334 34.4531H155.2V36H152.924ZM155.193 31.0909C155.193 31.7259 155.283 32.282 155.462 32.7592C155.645 33.2365 155.907 33.6094 156.248 33.8778C156.593 34.142 157.011 34.2741 157.501 34.2741C158.012 34.2741 158.44 34.1378 158.786 33.8651C159.131 33.5881 159.391 33.2109 159.565 32.7337C159.744 32.2521 159.834 31.7045 159.834 31.0909C159.834 30.4815 159.746 29.9403 159.572 29.4673C159.397 28.9943 159.137 28.6236 158.792 28.3551C158.447 28.0866 158.016 27.9524 157.501 27.9524C157.006 27.9524 156.587 28.0824 156.241 28.3423C155.896 28.6023 155.634 28.9666 155.455 29.4354C155.281 29.9041 155.193 30.456 155.193 31.0909ZM164.16 36V26.1818H166.403V27.8182H166.506C166.684 27.2514 166.991 26.8146 167.426 26.5078C167.865 26.1967 168.366 26.0412 168.928 26.0412C169.056 26.0412 169.199 26.0476 169.356 26.0604C169.518 26.0689 169.653 26.0838 169.759 26.1051V28.2337C169.661 28.1996 169.506 28.1697 169.292 28.1442C169.084 28.1143 168.881 28.0994 168.685 28.0994C168.263 28.0994 167.884 28.1911 167.547 28.3743C167.215 28.5533 166.953 28.8026 166.761 29.1222C166.569 29.4418 166.474 29.8104 166.474 30.228V36H164.16ZM173.946 36.1982C173.324 36.1982 172.763 36.0874 172.265 35.8658C171.77 35.6399 171.378 35.3075 171.089 34.8686C170.803 34.4297 170.66 33.8885 170.66 33.245C170.66 32.6911 170.763 32.233 170.967 31.8707C171.172 31.5085 171.451 31.2188 171.805 31.0014C172.158 30.7841 172.557 30.62 173 30.5092C173.447 30.3942 173.91 30.3111 174.387 30.2599C174.962 30.2003 175.429 30.147 175.787 30.1001C176.145 30.049 176.405 29.9723 176.567 29.87C176.733 29.7635 176.816 29.5994 176.816 29.3778V29.3395C176.816 28.858 176.673 28.4851 176.388 28.2209C176.102 27.9567 175.691 27.8246 175.154 27.8246C174.587 27.8246 174.138 27.9482 173.805 28.1953C173.477 28.4425 173.256 28.7344 173.14 29.071L170.98 28.7642C171.15 28.1676 171.432 27.669 171.824 27.2685C172.216 26.8636 172.695 26.5611 173.262 26.3608C173.829 26.1562 174.455 26.054 175.141 26.054C175.614 26.054 176.085 26.1094 176.554 26.2202C177.023 26.331 177.451 26.5142 177.839 26.7699C178.226 27.0213 178.537 27.3643 178.772 27.799C179.01 28.2337 179.13 28.777 179.13 29.429V36H176.905V34.6513H176.829C176.688 34.924 176.49 35.1797 176.234 35.4183C175.983 35.6527 175.665 35.8423 175.282 35.9872C174.903 36.1278 174.457 36.1982 173.946 36.1982ZM174.547 34.4979C175.011 34.4979 175.414 34.4062 175.755 34.223C176.096 34.0355 176.358 33.7884 176.541 33.4815C176.729 33.1747 176.822 32.8402 176.822 32.478V31.321C176.75 31.3807 176.626 31.4361 176.452 31.4872C176.281 31.5384 176.089 31.5831 175.876 31.6214C175.663 31.6598 175.452 31.6939 175.243 31.7237C175.035 31.7536 174.854 31.7791 174.7 31.8004C174.355 31.8473 174.046 31.924 173.773 32.0305C173.501 32.1371 173.285 32.2862 173.128 32.478C172.97 32.6655 172.891 32.9084 172.891 33.2067C172.891 33.6328 173.047 33.9545 173.358 34.1719C173.669 34.3892 174.065 34.4979 174.547 34.4979ZM190.204 36.1918C189.224 36.1918 188.382 35.9766 187.679 35.5462C186.98 35.1158 186.441 34.5213 186.062 33.7628C185.687 33 185.499 32.1222 185.499 31.1293C185.499 30.1321 185.691 29.2521 186.075 28.4893C186.458 27.7223 186.999 27.1257 187.698 26.6996C188.401 26.2692 189.232 26.054 190.191 26.054C190.988 26.054 191.693 26.201 192.307 26.495C192.925 26.7848 193.417 27.196 193.784 27.7287C194.15 28.2571 194.359 28.875 194.41 29.5824H192.198C192.109 29.1094 191.896 28.7152 191.559 28.3999C191.227 28.0803 190.781 27.9205 190.223 27.9205C189.75 27.9205 189.335 28.0483 188.977 28.304C188.619 28.5554 188.34 28.9176 188.139 29.3906C187.943 29.8636 187.845 30.4304 187.845 31.0909C187.845 31.7599 187.943 32.3352 188.139 32.8168C188.335 33.294 188.61 33.6626 188.964 33.9226C189.322 34.1783 189.742 34.3061 190.223 34.3061C190.564 34.3061 190.869 34.2422 191.137 34.1143C191.41 33.9822 191.638 33.7926 191.821 33.5455C192.004 33.2983 192.13 32.9979 192.198 32.6442H194.41C194.355 33.3388 194.15 33.9545 193.796 34.4915C193.443 35.0241 192.961 35.4418 192.352 35.7443C191.742 36.0426 191.026 36.1918 190.204 36.1918ZM200.593 36.1918C199.634 36.1918 198.803 35.9808 198.1 35.5589C197.397 35.1371 196.851 34.5469 196.463 33.7884C196.08 33.0298 195.888 32.1435 195.888 31.1293C195.888 30.1151 196.08 29.2266 196.463 28.4638C196.851 27.701 197.397 27.1087 198.1 26.6868C198.803 26.2649 199.634 26.054 200.593 26.054C201.551 26.054 202.382 26.2649 203.086 26.6868C203.789 27.1087 204.332 27.701 204.716 28.4638C205.103 29.2266 205.297 30.1151 205.297 31.1293C205.297 32.1435 205.103 33.0298 204.716 33.7884C204.332 34.5469 203.789 35.1371 203.086 35.5589C202.382 35.9808 201.551 36.1918 200.593 36.1918ZM200.605 34.3381C201.125 34.3381 201.56 34.1953 201.909 33.9098C202.259 33.62 202.519 33.2322 202.689 32.7464C202.864 32.2607 202.951 31.7195 202.951 31.1229C202.951 30.522 202.864 29.9787 202.689 29.4929C202.519 29.0028 202.259 28.6129 201.909 28.3232C201.56 28.0334 201.125 27.8885 200.605 27.8885C200.073 27.8885 199.63 28.0334 199.276 28.3232C198.926 28.6129 198.664 29.0028 198.49 29.4929C198.319 29.9787 198.234 30.522 198.234 31.1229C198.234 31.7195 198.319 32.2607 198.49 32.7464C198.664 33.2322 198.926 33.62 199.276 33.9098C199.63 34.1953 200.073 34.3381 200.605 34.3381ZM207.261 36V26.1818H209.473V27.8501H209.588C209.792 27.2876 210.131 26.8487 210.604 26.5334C211.077 26.2138 211.642 26.054 212.298 26.054C212.963 26.054 213.523 26.2159 213.979 26.5398C214.439 26.8594 214.763 27.2962 214.951 27.8501H215.053C215.27 27.3047 215.637 26.87 216.153 26.5462C216.672 26.218 217.288 26.054 218 26.054C218.903 26.054 219.64 26.3395 220.211 26.9105C220.782 27.4815 221.068 28.3146 221.068 29.4098V36H218.748V29.7678C218.748 29.1584 218.586 28.7131 218.262 28.4318C217.938 28.1463 217.542 28.0036 217.073 28.0036C216.515 28.0036 216.078 28.1783 215.763 28.5277C215.452 28.8729 215.296 29.3224 215.296 29.8764V36H213.027V29.6719C213.027 29.1648 212.873 28.7599 212.567 28.4574C212.264 28.1548 211.868 28.0036 211.378 28.0036C211.045 28.0036 210.743 28.0888 210.47 28.2592C210.197 28.4254 209.98 28.6619 209.818 28.9688C209.656 29.2713 209.575 29.625 209.575 30.0298V36H207.261ZM227.698 36.1918C226.739 36.1918 225.908 35.9808 225.205 35.5589C224.502 35.1371 223.957 34.5469 223.569 33.7884C223.185 33.0298 222.994 32.1435 222.994 31.1293C222.994 30.1151 223.185 29.2266 223.569 28.4638C223.957 27.701 224.502 27.1087 225.205 26.6868C225.908 26.2649 226.739 26.054 227.698 26.054C228.657 26.054 229.488 26.2649 230.191 26.6868C230.894 27.1087 231.438 27.701 231.821 28.4638C232.209 29.2266 232.403 30.1151 232.403 31.1293C232.403 32.1435 232.209 33.0298 231.821 33.7884C231.438 34.5469 230.894 35.1371 230.191 35.5589C229.488 35.9808 228.657 36.1918 227.698 36.1918ZM227.711 34.3381C228.231 34.3381 228.665 34.1953 229.015 33.9098C229.364 33.62 229.624 33.2322 229.795 32.7464C229.969 32.2607 230.057 31.7195 230.057 31.1229C230.057 30.522 229.969 29.9787 229.795 29.4929C229.624 29.0028 229.364 28.6129 229.015 28.3232C228.665 28.0334 228.231 27.8885 227.711 27.8885C227.178 27.8885 226.735 28.0334 226.381 28.3232C226.032 28.6129 225.77 29.0028 225.595 29.4929C225.425 29.9787 225.339 30.522 225.339 31.1229C225.339 31.7195 225.425 32.2607 225.595 32.7464C225.77 33.2322 226.032 33.62 226.381 33.9098C226.735 34.1953 227.178 34.3381 227.711 34.3381ZM249.692 22.9091V36H247.582L241.414 27.0831H241.305V36H238.934V22.9091H241.056L247.218 31.8324H247.333V22.9091H249.692ZM252.276 36V22.9091H260.662V24.897H254.647V28.451H260.087V30.4389H254.647V36H252.276ZM262.247 24.897V22.9091H272.692V24.897H268.646V36H266.293V24.897H262.247Z" fill="white"/>
</g>
<defs>
<filter id="filter0_d_9884_130" x="0" y="0" width="309" height="68" filterUnits="userSpaceOnUse" color-interpolation-filters="sRGB">
<feFlood flood-opacity="0" result="BackgroundImageFix"/>
<feColorMatrix in="SourceAlpha" type="matrix" values="0 0 0 0 0 0 0 0 0 0 0 0 0 0 0 0 0 0 127 0" result="hardAlpha"/>
<feOffset dx="5" dy="5"/>
<feGaussianBlur stdDeviation="5"/>
<feComposite in2="hardAlpha" operator="out"/>
<feColorMatrix type="matrix" values="0 0 0 0 0 0 0 0 0 0 0 0 0 0 0 0 0 0 0.25 0"/>
<feBlend mode="normal" in2="BackgroundImageFix" result="effect1_dropShadow_9884_130"/>
<feBlend mode="normal" in="SourceGraphic" in2="effect1_dropShadow_9884_130" result="shape"/>
</filter>
<linearGradient id="paint0_linear_9884_130" x1="5" y1="29" x2="294" y2="29" gradientUnits="userSpaceOnUse">
<stop stop-color="#0278FE"/>
<stop offset="1" stop-color="#003A7B"/>
</linearGradient>
</defs>
</svg>
